<?xml version="1.0" encoding="utf-8"?>
<!-- Generator: Adobe Illustrator 20.1.0, SVG Export Plug-In . SVG Version: 6.00 Build 0)  -->
<svg version="1.1" id="Layer_1" xmlns="http://www.w3.org/2000/svg" xmlns:xlink="http://www.w3.org/1999/xlink" x="0px" y="0px"
	 viewBox="0 0 388.6 272.4" style="enable-background:new 0 0 388.6 272.4;" xml:space="preserve">
<style type="text/css">
	.st0{fill:none;}
	.st1{enable-background:new    ;}
	.st2{fill:#E1E1E1;}
	.st3{font-family:'SavoyeLetPlain';}
	.st4{font-size:72px;}
	.st5{fill:#F4C051;}
	.st6{font-size:82px;}
	.st7{fill:#E7E6B7;}
	.st8{font-family:'Didot-Bold';}
	.st9{fill:#09AA8B;}
	.st10{fill:none;stroke:#050505;stroke-miterlimit:10;}
	.st11{opacity:0.54;fill:#673289;}
	.st12{fill:#4B6344;}
	.st13{fill:#673289;}
	.st14{fill:#E42244;}
	.st15{opacity:0.52;fill:#F4C051;}
	.st16{opacity:0.62;fill:#E42244;}
	.st17{opacity:0.92;fill:#E42244;}
	.st18{opacity:0.79;fill:#F4C051;}
	.st19{opacity:0.56;fill:#F4C051;}
	.st20{opacity:0.49;fill:#E42244;}
	.st21{opacity:0.69;fill:#4B6344;}
	.st22{opacity:0.81;fill:#E42244;}
	.st23{opacity:0.23;fill:none;}
	.st24{opacity:0.23;fill:#673289;}
	.st25{opacity:0.23;fill:#E42244;}
	.st26{opacity:0.23;fill:#E7E6B7;}
	.st27{opacity:0.23;fill:#4B6344;}
	.st28{opacity:0.4;fill:#E42244;}
	.st29{opacity:0.23;fill:#F4C051;}
	.st30{opacity:0.62;fill:#E7E6B7;}
	.st31{opacity:0.34;fill:#673289;}
	.st32{fill:#50C9BA;}
	.st33{font-family:'BodoniSvtyTwoOSITCTT-Book';}
	.st34{font-size:12px;}
</style>
<rect x="57.3" y="11.2" class="st0" width="281.6" height="164.3"/>
<text transform="matrix(1 0 0 1 74.2537 61.1748)" class="st1"><tspan x="0" y="0" class="st2 st3 st4"> </tspan><tspan x="12.5" y="0" class="st5 st3 st6">Tara</tspan><tspan x="0" y="86.4" class="st7 st8 st4">O’Neal</tspan></text>
<text transform="matrix(1 0 0 1 455.0531 135.7306)" class="st1"><tspan x="0" y="0" class="st3 st4" style="fill:#202020;"> </tspan><tspan x="12.5" y="0" class="st9 st3 st6">Tara</tspan><tspan x="0" y="86.4" class="st7 st8 st4">O’Neal</tspan></text>
<g>
	<g>
		<g>
			<path class="st10" d="M218.8,6.9"/>
		</g>
	</g>
</g>
<path class="st0" d="M258.5,20.9L258.5,20.9l0.2-0.3l0.2,0c0.9,0.3,1.8,0.7,2.7,1.1l-2.8-1.7l-0.2-3c0,0.9-0.1,1.8-0.4,2.7l0,0.1
	l0,0c0.2,0.4,0.3,0.4,0.2,0.6C258.4,20.6,258.4,20.6,258.5,20.9z"/>
<path class="st0" d="M267.8,26c0.1,0.2,0.3,0.3,0.4,0.5c-0.6-0.9-0.7-1.9-0.5-3c-0.1,0.5-0.3,0.9-0.5,1.4l-0.1,0.2l-2.6-1.5
	c0.7,0.5,1.4,1,2,1.6c0.3,0.2,0.4,0.9,0.2,1.2c-0.4,0.8-0.8,1.8-1.3,2.7l2.2-3.2L267.8,26z"/>
<path class="st11" d="M234.2,26.9c-0.2-0.8-0.2-1.6-0.3-2.4c-0.1-1-0.2-2-0.5-3.1c-0.1-0.3-0.3-0.7-0.6-0.8c-1.1-0.4-2-0.6-3.1-0.9
	c-0.9-0.2-1.8-0.4-2.7-0.8c-0.1,0-0.4,0-1-0.2c-0.2-0.1-0.5-0.2-0.7-0.2c-0.2,0.7-0.3,1.3-0.2,1.5l0,0c0.2,0.5,0.5,1.1,0.7,1.6
	c0.7,1.5,1.7,2.9,2.5,4.5c0.2,0.3,0.3,0.9,0.7,0.9c1.1,0.1,2.1,0,3-0.1C232.8,26.9,233.5,26.8,234.2,26.9z"/>
<path class="st12" d="M251.8,37.6c-1.4-0.3-2.8-0.5-4.2-0.7c-0.4-0.1-0.7-0.1-1-0.2c0.1,0.4,0.1,0.8,0.2,1.1
	c0.2,1.3,0.4,2.6,0.6,3.9c0.1,0.3,0.3,0.7,0.5,0.8c1.3,0.5,2.7,1,3.9,1.5c0.4,0.1,0.8,0.3,1.2,0.4c1,0.4,1.4,0.4,1.6,0.3
	c0.3-0.2,0.1-0.9,0-1.5c0-0.2-0.1-0.4-0.1-0.5l-0.5-1c-0.5-1.1-1-2.3-1.6-3.4C252.3,38,252.1,37.7,251.8,37.6z"/>
<path class="st13" d="M265,44.8c-0.1,1-0.1,2.1-0.2,3.1c0,0.4,0,0.7,0,1.1l0,0l3.6-6.6c-1,0.4-1.9,0.9-2.9,1.5
	C265.2,44,265,44.4,265,44.8z"/>
<path class="st14" d="M270.3,27.8l-1.6-6.4C267.6,24.2,267.5,26.3,270.3,27.8z"/>
<path class="st7" d="M270.2,29.7c-0.5-0.9-1.2-1.7-1.9-2.5c-0.2-0.3-0.5-0.5-0.7-0.7l-5.5,7.9l3.1,8.6c0.2-0.1,0.5-0.3,0.8-0.4
	c1.3-0.7,2.7-1.4,3.2-2.9c0.6-2,0.9-4.2,1.2-6.3l0.1-0.5C270.6,31.6,270.6,30.5,270.2,29.7z"/>
<path class="st12" d="M266.3,26.1c0.1-0.2,0-0.6-0.1-0.8c-2.2-1.9-4.7-3.4-7.3-4.2l-4.1,6.9l0,0l6.7,5.2
	C263.8,31.3,265.3,28.4,266.3,26.1z"/>
<path class="st7" d="M258.5,11l0.6,8.8l7.7,4.6c1.4-3.2,1-6.2-1.4-9.4C263.3,12,261.2,10.8,258.5,11z"/>
<path class="st7" d="M255.7,45.9c0,2.8-0.9,5.8-2.8,9.2c2.7,0.9,5.7,0.2,8-2c2.5-2.3,3.7-5.5,3-8.4L255.7,45.9z"/>
<path class="st15" d="M231.1,9.5c1.1,0.4,2.1,0.8,3,1.3c0.4,0.2,0.7,0.3,1.1,0.5l5.6-6.8c-2.4-3.1-5.6-2.3-8.9-1.4
	c-0.2,0.1-0.5,0.1-0.7,0.2c-2.3,0.6-3.2,2.2-4,3.9c-0.2,0.3-0.4,0.7-0.6,1c0.4,0.1,0.9,0.2,1.3,0.3C229,8.9,230.1,9.2,231.1,9.5z"/>
<path class="st13" d="M248.3,53.8c0.4,0.2,0.8,0.3,1.2,0.5c1.2,0.5,1.9,0.8,2.3,0.7c0.4-0.1,0.6-0.6,1-1.6c0.2-0.4,0.4-0.9,0.7-1.5
	c1-2,1.4-4.1,1.2-6.1l-7-2l-2.8,8.2c0.3,0.2,0.6,0.3,0.8,0.5C246.6,52.9,247.4,53.4,248.3,53.8z"/>
<path class="st5" d="M249.5,19.6h8.3c0.7-2.8,0.1-5.7-0.6-8.3c0-0.1-0.4-0.3-0.7-0.4c-2.5-0.2-4.9,0.3-7.3,1.4
	c-0.3,0.1-0.5,0.5-0.5,0.7c0.2,1.8,0.4,3.7,0.6,5.3L249.5,19.6z"/>
<path class="st7" d="M248.3,11.2l8.5-1.5c-0.1-0.2-0.2-0.5-0.2-0.7c-0.5-1.7-1.1-3.4-3.1-4.2l-0.3-0.1c-1.1-0.4-2.3-0.9-3.3-1.4
	c-2.6-1.3-4.7-0.3-6.6,1L248.3,11.2z"/>
<path class="st16" d="M225.3,17.5c2,0.5,4,1,5.9,1.4l1.5,0.4l1.5-7.2c-2.2-1.2-5.1-2.6-8.6-2.8c-0.8,2.2-1.1,4.5-1,7.6
	C224.7,17.1,225.1,17.5,225.3,17.5z"/>
<path class="st17" d="M256.1,44.7c2.5-0.3,4.9-0.6,7.1-1c0.2,0,0.6-0.5,0.6-0.7c0-2.9-1-5.6-2.8-8.1l-7.4,2.8L254,39
	c0.5,1.7,1,3.5,1.6,5.2C255.7,44.5,256,44.8,256.1,44.7z"/>
<path class="st13" d="M242.5,5.8c-0.1-0.1-0.8-0.2-1,0c-2.1,1.7-3.8,3.7-5,5.9l4.9,5.3c0.4-0.3,0.8-0.6,1.2-1
	c1.4-1.1,2.8-2.2,4.1-3.3c0.2-0.1,0.3-0.5,0.3-0.8c0,0,0,0,0,0C245.6,9.8,244.1,7.8,242.5,5.8z"/>
<path class="st18" d="M236.5,57.9"/>
<path class="st19" d="M238.5,56.8c0.1-0.1,0.2-0.1,0.3-0.2c0.1-0.1,0.2-0.1,0.3-0.2c0.1-0.1,0.2-0.1,0.2-0.2
	c0.1-0.1,0.2-0.1,0.2-0.2c0.1-0.1,0.2-0.1,0.2-0.2c0.1-0.1,0.2-0.1,0.2-0.2c0.1-0.1,0.1-0.1,0.2-0.2c0.1-0.1,0.1-0.1,0.2-0.2
	c0.1-0.1,0.1-0.1,0.2-0.2c0.1-0.1,0.1-0.1,0.2-0.2c0.1-0.1,0.1-0.1,0.2-0.2c0.1-0.1,0.1-0.1,0.2-0.2c0.1-0.1,0.1-0.1,0.2-0.2
	c0.1-0.1,0.1-0.1,0.2-0.2c0.1-0.1,0.1-0.1,0.2-0.2c0.1-0.1,0.1-0.1,0.2-0.2c0.1-0.1,0.1-0.2,0.2-0.2c0-0.1,0.1-0.1,0.1-0.2
	c0.1-0.1,0.1-0.2,0.2-0.3c0-0.1,0.1-0.1,0.1-0.2c0.1-0.1,0.2-0.4,0.3-0.5l-4.6-5.8l-5.2,5.7c0.3,0.8,3,3.7,5.3,4.6L238.5,56.8"/>
<path class="st18" d="M238.4,56.9"/>
<path class="st18" d="M238.3,56.8"/>
<path class="st7" d="M244.1,52.7c-0.3,0.3-0.5,0.8-0.8,1.1c-0.7,0.8-1.4,1.8-2.3,2.5c-1,0.7-1.8,1.2-2.8,1.8
	c-0.4,0.2-1.6,0.6-1.9,0.8c2,1.8,4.6,1.9,7.1,1.7c3.1-0.3,6-1.7,7.4-4.6L244.1,52.7z"/>
<path class="st5" d="M259.3,35c0.3,0,1-0.2,1.2-0.6c0.1-0.2,0.1-0.4,0-0.6l0-0.1c-0.5-0.5-4.5-3.5-6.3-4.6c-0.2-0.1-0.7-0.1-1,0
	c-1.3,0.8-2.6,1.6-3.8,2.4c-0.3,0.2-0.6,0.4-0.8,0.5c0.3,0.3,0.5,0.6,0.8,0.9c1,1.1,2,2.2,3.1,3.3c0.2,0.2,0.7,0.4,0.9,0.3
	c1.5-0.4,3.1-0.8,4.6-1.2C258.3,35.2,258.8,35.1,259.3,35z"/>
<path class="st13" d="M247.8,27c0.4,0,0.7,0.1,1.1,0.1c1.2,0.2,2.3,0.3,3.5,0.4c0.5,0,1.2-0.1,1.4-0.3c1-1.2,1.8-2.5,2.7-3.7
	c0.3-0.4,0.6-0.9,0.9-1.3l0.5-1.2c-0.1-0.3-0.1-0.4,0-0.5c0,0-0.1-0.1-0.1-0.2l-1.9-0.2c-0.8,0.1-1.7,0.2-2.5,0.3
	c-1.2,0.1-2.5,0.3-3.7,0.4c-0.2,0-0.6,0.3-0.6,0.5c-0.4,1.5-0.8,3-1.1,4.4C248,26.2,247.9,26.6,247.8,27z"/>
<path class="st20" d="M241.7,49.4c0.7,0.9,1.6,1.9,1.9,2.3c0.1,0,0.2,0,0.2,0c0.1-0.1,0.2-0.4,0.3-0.7c0.1-0.3,0.2-0.7,0.4-1.1
	c0.2-0.9,0.5-1.7,0.8-2.6c0.4-1.1,0.7-2.3,1-3.4c0.1-0.3-0.1-0.9-0.4-1.1c-1.1-0.9-2.3-1.9-3.5-2.8c-0.3-0.3-0.5-0.6-0.8-0.8
	c-0.1,0.3-0.3,0.7-0.5,1c-0.4,0.8-0.9,1.5-1.3,2.4c-1.1,2-0.6,3.8,0.8,5.6C241,48.4,241.3,48.9,241.7,49.4z"/>
<path class="st21" d="M240.7,17.8l-3.4-4.3c-0.4-0.3-0.7-0.6-0.9-0.8c-0.5-0.4-0.7-0.7-1-0.6c-0.1,0.2-0.1,0.6-0.2,0.9
	c-0.2,0.7-0.2,0.9-0.3,1.1l-0.1,1.3c-0.2,1.4-0.3,2.8-0.4,4.2c0,0.2,0.1,0.5,0.3,0.7c1,0.9,2,1.8,2.9,2.6l0.7,0.6L240.7,17.8z"/>
<path class="st22" d="M248.1,15.2c0-0.2-0.1-0.3-0.1-0.5c-0.2-0.5-0.2-0.8-0.3-1.1c-0.1-0.3,0-0.6-0.4-0.7l0,0
	c-0.1,0-0.3,0.2-0.4,0.3c-0.2,0.1-0.4,0.3-0.6,0.4c-0.6,0.6-1.2,1.2-1.9,1.8c-0.8,0.7-1.6,1.4-2.2,2.1c-0.2,0.2-0.3,0.6-0.2,0.9
	c0.3,1.2,0.7,2.4,1.1,3.7c0.1,0.3,0.2,0.7,0.3,1.1c0.2-0.1,0.4-0.3,0.6-0.5c0.6-0.5,1.3-0.9,2-1.3c3.5-1.8,2.8-2.3,2.3-4.7
	C248.2,16.2,248.2,15.6,248.1,15.2z"/>
<path class="st14" d="M255.2,56.4c-0.2,0-0.4-0.1-0.6-0.1c-0.5-0.1-0.8-0.1-1.1-0.1l-0.2,0c-0.1,0-0.1,0-0.2,0c-0.4,0-0.8,0-1,0.2
	c-0.9,0.9-1.7,1.9-2.4,2.8c-0.1,0.2-0.3,0.3-0.4,0.5c0.4-0.1,0.7-0.3,1.1-0.4C252.1,58.6,253.9,58,255.2,56.4z"/>
<path class="st12" d="M257.8,9.5c0.1,0.2,0.4,0.5,0.7,0.5c0.8,0.2,1.6,0.3,2.5,0.4c0.2,0,0.5,0.1,0.7,0.1l-4.9-3.9l-0.1,0.1
	c0.1,0.2,0.2,0.5,0.3,0.7C257.2,8.1,257.4,8.8,257.8,9.5z"/>
<path class="st7" d="M243.2,62.6c-0.1,0-0.2,0-0.3,0c0,0-0.1,0-0.1,0l0,21.2l0.4,0L243.2,62.6z"/>
<path class="st7" d="M257.4,73l0-16.2c-0.1,0.1-0.3,0.1-0.4,0.2l0,16c0,0,0,0,0.1,0L257.4,73z"/>
<path class="st7" d="M229.5,73.7l0-16c-0.1,0-0.2-0.1-0.3-0.1h-0.1l0,16.1L229.5,73.7C229.5,73.7,229.5,73.7,229.5,73.7z"/>
<path class="st7" d="M227.9,75.6c-0.2,0.8-0.5,1.3-0.8,1.7c-0.3,0.4-0.5,0.8-0.4,1.3c0,0.4,0,1.2-0.1,1.9c0.4-0.5,0.9-0.9,1.1-0.9
	c0.1,0,0.2,0,0.2,0.1l0.1,0.1l-0.1,0.1c0,0-0.3,0.3-1.4,1.6c0,0.1-0.1,0.5,0,1.6c0,0.3,0,0.5,0,0.7c0.4-0.4,0.7-0.7,0.9-0.7
	c0.1,0,0.2,0,0.2,0.1l0.1,0.1l-0.1,0.1c0,0-0.5,0.9-1,1.2c-0.3,0.3-0.8,1.9-0.3,2.8c0.2,0.4,0.3,0.9,0.2,1.3
	c0.4-0.6,0.8-1.1,1.1-1.1c0,0,0,0,0,0c0.1,0,0.2,0.1,0.3,0.2l0.1,0.2l-0.1,0.1c0,0-1.1,0.8-1.2,1.8c0,0.5,0.1,0.7,0.2,1
	c0.1,0.2,0.3,0.5,0.4,1.1c0.2,1.1,0.4,1.6,0.9,1.7c0.7,0.2,1,0.7,1,0.9c0,0,0.2,0.2,0.4,0.2c0.2,0,0.4-0.3,0.6-0.8
	c0.3-0.8,0.3-1.3,0.3-1.7c0-0.4,0-0.8,0.4-1.2c0.5-0.7,0.5-1.6,0.2-2.1c-0.1-0.3-0.1-0.5-0.1-0.8c0-0.3,0-0.5-0.2-0.7l-0.1-0.1
	c-0.2-0.4-0.4-0.8-0.6-1c-0.2-0.1-0.2-0.2-0.3-0.2l-0.4-0.3l0.5-0.1c0.1,0,0.2,0,0.4,0.3c0.3,0.2,0.8,0.7,1.1,1.2
	c0-0.7,0-1.8,0.2-2.3c0.1-0.6-0.2-1.3-0.2-1.4c0,0-0.3-0.5-0.9-0.8c-0.1,0-0.3-0.1-0.4-0.3c0-0.1,0-0.2,0-0.2l0.1-0.1l0.1,0
	c0.1,0,1,0.2,1.5,0.6c0-0.2-0.1-0.4-0.3-0.8c-0.1-0.1-0.3-0.5,0-1.4c0.3-0.9,0-1.4-0.5-1.8c-1-0.8-1.1-0.9-1-1.1
	c0.1-0.2,0.3-0.1,0.8,0.2c0.2,0.1,0.5,0.3,0.6,0.3l0.1,0l0,0.1c0,0,0,0,0.1,0.1c-0.1-0.1-0.1-0.2-0.2-0.3c-0.6-0.6-0.8-1-0.6-1.3
	l0.1-0.2l0.2,0.2c-0.1-0.3-0.3-0.6-0.4-1.2c0,0,0-0.4-0.1-0.4c0,0,0-0.1,0-0.1c0-0.1,0-0.2-0.1-0.3c-0.3-0.1-0.5-0.6-0.5-0.7
	c-0.2-0.2-0.4-0.3-0.5-0.3l-0.1,0l0,0l-0.1,0l-0.2,0l-0.1,0l-0.1,0C229,74.1,228.3,74.1,227.9,75.6z"/>
<path class="st7" d="M242.7,84.2c-0.1-0.1-0.4,0.1-0.7,0.4c-0.1,0.2-0.3,0.7-0.7,0.9c-0.2,0.1-0.2,0.2-0.2,0.4c0,0,0,0.1,0,0.1
	c0,0,0,0.3-0.1,0.5c-0.2,1-0.5,1.5-0.8,1.9c0.1-0.1,0.2-0.2,0.3-0.2l0.2-0.2l0.1,0.2c0.2,0.4-0.3,1.1-0.8,1.6
	c-0.2,0.3-0.4,0.6-0.5,0.9c0.2-0.3,0.4-0.4,0.4-0.5l0.1-0.1l0.1,0c0.1,0,0.5-0.2,0.7-0.4c0.7-0.4,0.8-0.4,0.9-0.3
	c0.1,0.2,0.1,0.2-1.3,1.3c-0.7,0.6-1.1,1.2-0.7,2.4c0.3,1.2,0.1,1.7,0,1.8c-0.3,0.6-0.4,1-0.4,1.2c0.6-0.7,2-0.9,2.1-0.9l0.1,0
	l0.1,0.1c0,0.1,0,0.2,0,0.3c-0.1,0.2-0.4,0.3-0.5,0.3c-0.8,0.5-1.2,1.1-1.3,1.1v0c0,0-0.4,1-0.2,1.8c0.2,0.6,0.2,2.2,0.2,3.2
	c0.5-0.8,1.2-1.5,1.6-1.8c0.2-0.2,0.4-0.3,0.5-0.3l0.5,0.1l-0.4,0.3c0,0-0.1,0.1-0.4,0.3c-0.2,0.3-0.5,0.8-0.8,1.3l0,0l0,0
	c-0.3,0.2-0.3,0.5-0.3,0.9c0,0.3,0,0.6-0.2,1c-0.3,0.5-0.4,1.7,0.3,2.8c0.4,0.6,0.4,1,0.5,1.6c0,0.5,0.1,1.2,0.5,2.2
	c0.3,0.7,0.6,1.1,0.9,1.1c0.3,0,0.5-0.2,0.5-0.3c0.1-0.2,0.5-0.9,1.3-1.1c0.7-0.2,1-0.8,1.2-2.4c0.1-0.7,0.3-1,0.5-1.4
	c0.2-0.4,0.4-0.7,0.3-1.4c-0.1-1.3-1.6-2.4-1.6-2.4l-0.1-0.1l0.1-0.2c0.1-0.1,0.2-0.2,0.3-0.2c0.4,0,1,0.8,1.5,1.6
	c-0.1-0.6,0-1.3,0.3-1.9c0.6-1.2,0-3.4-0.4-3.8c-0.6-0.5-1.2-1.5-1.3-1.6l-0.1-0.1l0.1-0.1c0.1-0.1,0.1-0.1,0.2-0.1
	c0.3,0,0.8,0.5,1.3,1c0-0.3-0.1-0.7,0-1.1c0.2-1.4,0.1-2,0-2.1c-1.5-1.7-1.9-2.1-1.9-2.1l-0.1-0.1l0.1-0.1c0.1-0.1,0.1-0.1,0.2-0.1
	c0.3,0,1,0.7,1.6,1.3c-0.1-0.8-0.2-1.9-0.2-2.7c0-0.8-0.2-1.2-0.6-1.8c-0.3-0.5-0.7-1.2-1-2.2c-0.6-2.1-1.6-2-1.6-2l-0.1,0l0,0.1
	h-0.4l0-0.1L242.7,84.2L242.7,84.2z"/>
<polygon points="243.2,84.3 243.2,84.2 242.8,84.2 242.8,84.3 "/>
<path class="st7" d="M230.8,57.4c-1.1-0.7-2.2-1.2-2.5-1.2c0,0-0.1,0-0.1,0c0,0.1,0.3,0.5,1,0.9C229.7,57.4,230.4,57.6,230.8,57.4z"
	/>
<path class="st7" d="M257.3,56.4C257.3,56.4,257.3,56.4,257.3,56.4c0.7-0.4,1-0.8,1-0.9c-0.2-0.1-1.4,0.5-2.6,1.2
	c0.3,0.1,0.8,0,1.3-0.2l0,0L257.3,56.4z"/>
<path class="st7" d="M256.9,56.5L256.9,56.5c0.1,0,0.2-0.1,0.3-0.2L256.9,56.5z"/>
<path class="st7" d="M243.2,62.1l0,0.1c0,0,0,0,0,0c0.8-0.1,1.3-0.3,1.3-0.4c-0.2-0.2-1.5-0.2-3,0c0.2,0.3,0.8,0.4,1.3,0.4l0-0.1
	H243.2z"/>
<path class="st7" d="M243.2,62.1h-0.4l0,0.1c0.1,0,0.3,0,0.4,0L243.2,62.1z"/>
<path d="M240.4,90.5c-0.1,0-0.1,0.1-0.2,0.1c-0.1,0.1-0.2,0.2-0.4,0.4c0.1-0.1,0.3-0.3,0.4-0.4C240.3,90.5,240.4,90.5,240.4,90.5z"
	/>
<path class="st7" d="M256.9,73.4c-0.1,0-0.3,0.1-0.5,0.3c-0.1,0.2-0.2,0.6-0.5,0.7c-0.1,0.1-0.1,0.1-0.1,0.3c0,0,0,0.1,0,0.1
	c0,0.1,0,0.4,0,0.4c-0.1,0.6-0.3,0.9-0.4,1.2l0.2-0.2l0.1,0.2c0.1,0.2-0.1,0.7-0.6,1.3c-0.1,0.1-0.2,0.2-0.2,0.3
	c0.1-0.1,0.1-0.1,0.1-0.1l0.1-0.1l0.1,0c0,0,0.3-0.2,0.5-0.3c0.5-0.3,0.7-0.4,0.8-0.2c0.1,0.2,0.1,0.3-1,1.1
	c-0.5,0.4-0.8,0.9-0.5,1.8c0.3,0.9,0.1,1.3,0,1.4c-0.2,0.3-0.3,0.6-0.3,0.8c0.5-0.4,1.4-0.6,1.5-0.6l0.1,0l0.1,0.1
	c0,0.1,0,0.2,0,0.2c-0.1,0.2-0.3,0.3-0.4,0.3c-0.6,0.3-0.9,0.8-0.9,0.8c0,0,0,0,0,0c0,0-0.3,0.7-0.2,1.3c0.1,0.5,0.1,1.6,0.2,2.3
	c0.4-0.6,0.9-1,1.1-1.2c0.2-0.3,0.4-0.3,0.4-0.3l0.5,0.1l-0.4,0.3c0,0-0.1,0.1-0.3,0.2c-0.2,0.2-0.4,0.6-0.6,1l0,0l0,0
	c-0.2,0.1-0.2,0.3-0.2,0.7c0,0.2,0,0.5-0.1,0.8c-0.2,0.4-0.3,1.3,0.2,2.1c0.3,0.4,0.3,0.8,0.4,1.2c0,0.4,0,0.9,0.3,1.7
	c0.2,0.5,0.4,0.8,0.6,0.8c0.2,0,0.3-0.1,0.4-0.2c0.1-0.2,0.4-0.7,1-0.9c0.5-0.2,0.7-0.6,0.9-1.7c0.1-0.5,0.2-0.8,0.4-1.1
	c0.2-0.3,0.3-0.5,0.2-1c-0.1-1-1.2-1.8-1.2-1.8l-0.1-0.1l0.1-0.2c0.1-0.1,0.2-0.2,0.3-0.2c0,0,0,0,0,0c0.3,0,0.7,0.5,1.1,1.1
	c0-0.4,0-0.9,0.2-1.3c0.5-0.9,0-2.5-0.3-2.8c-0.4-0.4-0.9-1.2-1-1.2l-0.1-0.1l0.1-0.1c0.1-0.1,0.1-0.1,0.2-0.1
	c0.2,0,0.6,0.3,0.9,0.7c0-0.2,0-0.5,0-0.7c0.1-1,0.1-1.4,0-1.6c-1.2-1.3-1.4-1.6-1.4-1.6l-0.1-0.1l0.1-0.1c0.1-0.1,0.1-0.1,0.2-0.1
	c0.2,0,0.7,0.4,1.1,0.9c-0.1-0.7-0.1-1.5-0.1-1.9c0-0.6-0.2-0.9-0.4-1.3c-0.2-0.4-0.5-0.9-0.8-1.7c-0.4-1.5-1.2-1.5-1.2-1.5l-0.1,0
	l0,0L256.9,73.4L256.9,73.4L256.9,73.4L256.9,73.4z"/>
<polygon class="st7" points="257.4,73.4 257.4,73.4 257,73.4 257,73.4 "/>
<path class="st23" d="M224.4,20.6L224.4,20.6l-0.2-0.3l-0.2,0.1c-0.9,0.3-1.8,0.7-2.7,1.2l2.7-1.7l0.1-3c0,0.9,0.2,1.8,0.4,2.7
	l0,0.1l0,0c-0.2,0.4-0.2,0.4-0.2,0.6C224.5,20.2,224.5,20.3,224.4,20.6z"/>
<path class="st23" d="M215.3,25.9c-0.1,0.2-0.3,0.3-0.4,0.5c0.6-0.9,0.6-2,0.4-3c0.2,0.5,0.3,0.9,0.6,1.4l0.1,0.2l2.6-1.6
	c-0.7,0.5-1.3,1-1.9,1.6c-0.3,0.2-0.4,0.9-0.2,1.2c0.4,0.8,0.8,1.7,1.4,2.6l-2.3-3.1L215.3,25.9z"/>
<path class="st24" d="M218.9,48.8l-3.7-6.5c1,0.3,1.9,0.8,2.9,1.5"/>
<path class="st25" d="M212.8,27.8l1.4-6.4C215.4,24.1,215.5,26.2,212.8,27.8"/>
<path class="st26" d="M212.8,32.8c-0.2-1.1-0.3-2.3,0.1-3.1c0.5-0.9,1.2-1.8,1.9-2.5c0.2-0.3,0.4-0.5,0.6-0.8l5.7,7.7l-2.9,8.7"/>
<path class="st26" d="M218.3,42.8c-0.2-0.1-0.5-0.3-0.8-0.4c-1.3-0.7-2.7-1.3-3.2-2.9c-0.7-2-1-4.2-1.4-6.3l-0.1-0.4"/>
<path class="st27" d="M216.7,26c-0.1-0.2,0-0.6,0.1-0.8c2.2-2,4.6-3.5,7.2-4.4l4.3,6.8l0,0l-6.5,5.4C219.3,31.1,217.8,28.3,216.7,26
	z"/>
<path class="st26" d="M224.5,9.7l-0.9,9.7l-7.7,5c-1.5-3.3-1.2-6.5,1.2-9.9C219.2,11.3,221.8,9.6,224.5,9.7z"/>
<path class="st28" d="M226.1,55.1c0.7,0.1,1.4,0.5,2.2,0.4c0.2,0,1.8-1.4,2-1.5l-2.3-5.1l-8-1.9c0,0.2,0,0.4,0,0.6
	c-0.1,1.1-0.2,2.2,0.6,3c1,1.2,2.2,2.2,3.4,3.1l0.3,0.2C224.8,54.6,225.4,55.1,226.1,55.1z"/>
<path class="st23" d="M222.1,34.7L222.1,34.7c0.1,0.5,0.1,0.5,0.2,0.6c0,0,0.1,0.1,0.2,0.3l0,0l-0.4-0.1l-0.1,0.1
	c-0.5,0.8-0.9,1.7-1.3,2.6l1-3.1l-1.8-2.4"/>
<line class="st26" x1="219.3" y1="45.8" x2="228.6" y2="48.1"/>
<line class="st24" x1="221.3" y1="35.3" x2="218.5" y2="43.8"/>
<path class="st25" d="M233.4,32.5c-0.2,0.3-0.7,0.7-0.9,1c-0.6,0.9-1.3,1.7-2,2.6c-0.3,0.4-0.8,0.7-1.1,0.7
	c-1.4-0.1-2.7-0.3-4.1-0.5c-0.5-0.1-1-0.1-1.4-0.2l-1.1-0.4c-0.1-0.2-0.2-0.3-0.3-0.3c0,0,0-0.1,0-0.2l1.1-1.4
	c0.6-0.5,1-1.2,1.6-1.7c0.9-0.7,2.4-2.6,3.3-3.3c0.2-0.1,1.2,0.7,1.3,0.8c1.1,0.8,1.7,1.6,2.9,2.3"/>
<path class="st29" d="M220.4,45.2c-0.2-0.1-0.4-0.5-0.4-0.7c0.2-2.8,0.9-5.5,2.2-7.7l4.1,0.7l2.7,0.2l-0.4,9.8
	C225.6,47.6,222.6,46.3,220.4,45.2z"/>
<path class="st30" d="M229,48.5l2,4.5l6.5-7C237.5,46,230.1,48.8,229,48.5z"/>
<path class="st21" d="M236.2,36.4l2,8.5c-2.1,0.7-5.7,2.4-8.3,2.5c-0.1,0-0.1-2.3-0.1-2.6c-0.1-2.6-0.2-4.1,0.2-6.4
	c0-0.2,0.3-0.6,0.5-0.6c1.7-0.3,2.9-0.9,4.4-1.1L236.2,36.4z"/>
<path class="st7" d="M234.9,58.6"/>
<path class="st31" d="M232.4,52.8c1.3,2.9,5.3,4.8,5.3,4.8c-0.8,0.2-2.2,1.2-2.2,1.2c-4.1-0.7-6.5-3.3-6.5-3.3L232.4,52.8z"/>
<rect x="52.7" y="200.9" class="st0" width="267.9" height="65.1"/>
<text transform="matrix(1 0 0 1 108.4074 209.346)"><tspan x="0" y="0" class="st32 st33 st34">Explore my collection of boho-chic</tspan><tspan x="-3.9" y="14.4" class="st32 st33 st34">influenced clothes and interior styles</tspan></text>
</svg>
